<?xml version="1.0" encoding="UTF-8"?>
<svg fill="#fff" xmlns="http://www.w3.org/2000/svg" id="Layer_1" data-name="Layer 1" viewBox="0 0 24 24" width="512" height="512"><path d="m13-.004H5C2.243-.004,0,2.239,0,4.996v12.854c0,.793.435,1.519,1.134,1.894.318.171.667.255,1.015.255.416,0,.831-.121,1.191-.36l3.963-2.643h5.697c2.757,0,5-2.243,5-5v-7C18,2.239,15.757-.004,13-.004Zm11,9v12.854c0,.793-.435,1.519-1.134,1.894-.318.171-.667.255-1.015.256-.416,0-.831-.121-1.19-.36l-3.964-2.644h-5.697c-1.45,0-2.747-.631-3.661-1.62l.569-.38h5.092c3.859,0,7-3.141,7-7v-7c0-.308-.027-.608-.065-.906,2.311.44,4.065,2.469,4.065,4.906Z"/></svg>
