<svg xmlns="http://www.w3.org/2000/svg" enable-background="new 0 0 24 24" viewBox="0 0 24 24" id="udemy"><path d="M19.272 8.773c0 .008 0 .015 0 .023 0 .001 0 .002 0 .003V8.773zM23.58 13.365c-.078-.065-.172-.114-.276-.138L23.3 13.226c-.6.604-1.35 1.237-2 1.663-.31.198-.7.297-.95.297-.59 0-.84-.544-.91-1.425-.11-1.287-.172-2.784-.172-4.297 0-.163.001-.325.002-.487 0-2.235-.521-3.759-1.88-3.877l-.18-.01c-.83 0-1.24.426-1.77 1.505-.46.931-1.17 2.277-2.48 4.85-1.061 2.075-2.207 3.86-3.5 5.524-.31.376-.55.633-.78.791-.123.084-.275.136-.439.139H8.242c-.43 0-.75-.356-.85-1.198-.026-.196-.04-.424-.04-.653 0-.009 0-.019 0-.029 0-1.732.66-4.553 1.8-8.691.83-3.019.48-5.078-1.34-5.078h-.03c-.41 0-.75.158-1.08.416-.33.247-.65.802-.96 1.544-.34.832-2.42 4.979-5.739 7.127-.04.802.42 1.614 1.37 1.712.85.079 1.46-.277 2.24-.802l-.16.723c-.166.644-.341 1.515-.478 2.399l-.022.174c-.46 4.157 1.47 6.206 3.74 6.206.38 0 .76-.05 1.13-.148 2.5-.624 4.9-3.474 7.749-10.027-.021.327-.032.708-.032 1.092 0 .311.008.619.023.926.194 3.746 1.682 4.862 3.798 4.862 1.6 0 3.09-.822 3.85-1.851.474-.592.768-1.344.79-2.163v-.005C23.98 13.95 23.83 13.564 23.58 13.365L23.58 13.365z"></path><path d="M15.564,13.485c0-0.009,0-0.018-0.001-0.027c0-0.006-0.001-0.012-0.001-0.018L15.564,13.485z"></path></svg>