<?xml version="1.0" encoding="UTF-8"?>
<svg fill="#fff" xmlns="http://www.w3.org/2000/svg" id="Layer_1" data-name="Layer 1" viewBox="0 0 24 24" width="512" height="512"><path d="M24,7.5c0,.828-.672,1.5-1.5,1.5h-1.785c.178,.587,.285,1.172,.285,1.5,0,.828-.672,1.5-1.5,1.5s-1.5-.672-1.5-1.5c0-.328,.106-.913,.285-1.5h-1.785c-.828,0-1.5-.672-1.5-1.5v-1.785c.587,.178,1.172,.285,1.5,.285,.828,0,1.5-.672,1.5-1.5s-.672-1.5-1.5-1.5c-.328,0-.913,.106-1.5,.285V1.5c0-.828,.672-1.5,1.5-1.5h3.5c2.209,0,4,1.791,4,4v3.5ZM3.285,13c-.178-.587-.285-1.172-.285-1.5,0-.828,.672-1.5,1.5-1.5s1.5,.672,1.5,1.5c0,.328-.106,.913-.285,1.5h3.285V5.5c0-.828-.672-1.5-1.5-1.5h-3.5C1.791,4,0,5.791,0,8v5H3.285Zm15.215,2c.828,0,1.5,.672,1.5,1.5v3.5c0,2.209-1.791,4-4,4h-5V15h3.285c-.178,.587-.285,1.172-.285,1.5,0,.828,.672,1.5,1.5,1.5s1.5-.672,1.5-1.5c0-.328-.106-.913-.285-1.5h1.785Zm-9.5,9H4c-2.209,0-4-1.791-4-4v-5H9v3.285c-.587-.178-1.172-.285-1.5-.285-.828,0-1.5,.672-1.5,1.5s.672,1.5,1.5,1.5c.328,0,.913-.106,1.5-.285v3.285Z"/></svg>
