<?xml version="1.0" encoding="UTF-8"?>
<svg fill="#fff" xmlns="http://www.w3.org/2000/svg" id="Layer_1" data-name="Layer 1" viewBox="0 0 24 24" width="512" height="512"><path d="M19,1H5C2.243,1,0,3.243,0,6V14c0,2.757,2.243,5,5,5h6v2H7c-.552,0-1,.447-1,1s.448,1,1,1h10c.552,0,1-.447,1-1s-.448-1-1-1h-4v-2h6c2.757,0,5-2.243,5-5V6c0-2.757-2.243-5-5-5ZM7.293,10.707l2.583,2.584c.391,.391,.391,1.023,0,1.414-.195,.195-.451,.293-.707,.293s-.512-.098-.707-.293l-2.583-2.584c-1.17-1.17-1.17-3.072,0-4.242l2.583-2.584c.391-.391,1.023-.391,1.414,0s.391,1.023,0,1.414l-2.583,2.584c-.39,.39-.39,1.024,0,1.414Zm10.828,1.414l-2.583,2.584c-.195,.195-.451,.293-.707,.293s-.512-.098-.707-.293c-.391-.391-.391-1.023,0-1.414l2.583-2.584c.39-.39,.39-1.024,0-1.414l-2.583-2.584c-.391-.391-.391-1.023,0-1.414s1.023-.391,1.414,0l2.583,2.584c1.17,1.17,1.17,3.072,0,4.242Z"/></svg>
